<svg xmlns="http://www.w3.org/2000/svg" xmlns:xlink="http://www.w3.org/1999/xlink" width="320" zoomAndPan="magnify" viewBox="0 0 240 98.999996" height="132" preserveAspectRatio="xMidYMid meet" version="1.0"><defs><g/><clipPath id="80d9ee8f73"><rect x="0" width="216" y="0" height="55"/></clipPath></defs><g transform="matrix(1, 0, 0, 1, 12, 12)"><g clip-path="url(#80d9ee8f73)"><g fill="#f0f0f0" fill-opacity="1"><g transform="translate(0.734879, 42.985385)"><g><path d="M 3.46875 0 L 3.46875 -35.984375 L 29.046875 -35.984375 L 29.046875 -29.109375 L 11.46875 -29.109375 L 11.46875 -21.71875 L 27.515625 -21.71875 L 27.515625 -15.03125 L 11.46875 -15.03125 L 11.46875 -6.9375 L 29.3125 -6.9375 L 29.3125 0 Z M 3.46875 0 "/></g></g></g><g fill="#f0f0f0" fill-opacity="1"><g transform="translate(31.009431, 42.985385)"><g><path d="M 12.28125 0 L 12.28125 -29 L 1.015625 -29 L 1.015625 -35.984375 L 31.546875 -35.984375 L 31.546875 -29 L 20.28125 -29 L 20.28125 0 Z M 12.28125 0 "/></g></g></g><g fill="#f0f0f0" fill-opacity="1"><g transform="translate(63.577605, 42.985385)"><g><path d="M 3.46875 0 L 3.46875 -35.984375 L 11.46875 -35.984375 L 11.46875 -21.96875 L 25.734375 -21.96875 L 25.734375 -35.984375 L 33.796875 -35.984375 L 33.796875 0 L 25.734375 0 L 25.734375 -15.03125 L 11.46875 -15.03125 L 11.46875 0 Z M 3.46875 0 "/></g></g></g><g fill="#f0f0f0" fill-opacity="1"><g transform="translate(100.783816, 42.985385)"><g><path d="M 3.46875 0 L 3.46875 -35.984375 L 11.46875 -35.984375 L 11.46875 0 Z M 3.46875 0 "/></g></g></g><g fill="#f0f0f0" fill-opacity="1"><g transform="translate(115.717269, 42.985385)"><g><path d="M 20.546875 0.5625 C 17.859375 0.5625 15.367188 0.09375 13.078125 -0.84375 C 10.785156 -1.78125 8.78125 -3.085938 7.0625 -4.765625 C 5.34375 -6.441406 4.003906 -8.410156 3.046875 -10.671875 C 2.097656 -12.929688 1.625 -15.390625 1.625 -18.046875 C 1.625 -20.660156 2.097656 -23.085938 3.046875 -25.328125 C 4.003906 -27.578125 5.332031 -29.539062 7.03125 -31.21875 C 8.726562 -32.894531 10.722656 -34.203125 13.015625 -35.140625 C 15.316406 -36.078125 17.804688 -36.546875 20.484375 -36.546875 C 23.335938 -36.546875 25.878906 -36.085938 28.109375 -35.171875 C 30.335938 -34.253906 32.28125 -32.992188 33.9375 -31.390625 L 28.59375 -26 C 27.644531 -27.007812 26.5 -27.800781 25.15625 -28.375 C 23.8125 -28.957031 22.253906 -29.25 20.484375 -29.25 C 18.410156 -29.25 16.566406 -28.78125 14.953125 -27.84375 C 13.335938 -26.914062 12.082031 -25.609375 11.1875 -23.921875 C 10.289062 -22.242188 9.84375 -20.285156 9.84375 -18.046875 C 9.84375 -15.765625 10.289062 -13.773438 11.1875 -12.078125 C 12.082031 -10.378906 13.335938 -9.0625 14.953125 -8.125 C 16.566406 -7.195312 18.410156 -6.734375 20.484375 -6.734375 C 22.316406 -6.734375 23.910156 -7.019531 25.265625 -7.59375 C 26.628906 -8.164062 27.804688 -8.960938 28.796875 -9.984375 L 34.203125 -4.59375 C 32.460938 -2.988281 30.476562 -1.726562 28.25 -0.8125 C 26.03125 0.101562 23.460938 0.5625 20.546875 0.5625 Z M 20.546875 0.5625 "/></g></g></g><g fill="#f0f0f0" fill-opacity="1"><g transform="translate(149.916318, 42.985385)"><g><path d="M 0.765625 0 L 15.03125 -35.984375 L 22.265625 -35.984375 L 36.390625 0 L 27.9375 0 L 25.53125 -6.53125 L 11.46875 -6.53125 L 9.078125 0 Z M 13.859375 -13.046875 L 23.1875 -13.046875 L 18.546875 -25.890625 Z M 13.859375 -13.046875 "/></g></g></g><g fill="#f0f0f0" fill-opacity="1"><g transform="translate(186.663796, 42.985385)"><g><path d="M 3.46875 0 L 3.46875 -35.984375 L 11.46875 -35.984375 L 11.46875 -7.03125 L 27.421875 -7.03125 L 27.421875 0 Z M 3.46875 0 "/></g></g></g></g></g><path stroke-linecap="butt" transform="matrix(0.75, -0.000000000000000186, 0.000000000000000186, 0.75, 15.458399, 65.520697)" fill="none" stroke-linejoin="miter" d="M -0.00182369 2.998446 L 282.435699 2.998446 " stroke="#b57edc" stroke-width="6" stroke-opacity="1" stroke-miterlimit="4"/><path stroke-linecap="butt" transform="matrix(0.75, -0.000000000000000186, 0.000000000000000186, 0.75, 15.458399, 75.115452)" fill="none" stroke-linejoin="miter" d="M -0.00182369 3.002314 L 282.435699 3.002314 " stroke="#b57edc" stroke-width="6" stroke-opacity="1" stroke-miterlimit="4"/><path stroke-linecap="butt" transform="matrix(0.75, -0.000000000000000186, 0.000000000000000186, 0.75, 15.458399, 84.516846)" fill="none" stroke-linejoin="miter" d="M -0.00182369 2.998372 L 282.435699 2.998372 " stroke="#b57edc" stroke-width="6" stroke-opacity="1" stroke-miterlimit="4"/></svg>